<svg
  width="209"
  height="54"
  viewBox="0 0 427 81"
  fill="none"
  xmlns="http://www.w3.org/2000/svg"
>
  <mask
    id="path-1-outside-1_4_22"
    maskUnits="userSpaceOnUse"
    x="0.09375"
    y="0.1875"
    width="427"
    height="81"
    fill="black"
  >
    <rect fill="white" x="0.09375" y="0.1875" width="427" height="81" />
    <path
      d="M40.2969 23.3281C39.6719 21.8906 39.2031 21.1719 38.8906 21.1719C38.5156 21.1719 37.9531 22.1719 37.2031 24.1719L27.1719 47.0938L18.5 66.4062C18.25 67 18.125 67.5156 18.125 67.9531C18.125 68.4219 18.2969 68.8438 18.6406 69.2188C19.0156 69.5938 19.875 69.9688 21.2188 70.3438C22.5625 70.7188 23.4062 71.0938 23.75 71.4688C24.0938 71.8438 24.2656 72.2656 24.2656 72.7344C24.2656 74.1719 23.3281 74.8906 21.4531 74.8906C21.0156 74.8906 19.9375 74.75 18.2188 74.4688C16.5312 74.2188 15.125 74.0938 14 74.0938C12.8438 74.0938 11.6562 74.2188 10.4375 74.4688C9.21875 74.7188 8.32812 74.8438 7.76562 74.8438C6.98438 74.8438 6.34375 74.625 5.84375 74.1875C5.34375 73.7812 5.09375 73.2969 5.09375 72.7344C5.09375 71.9219 5.25 71.3906 5.5625 71.1406C5.875 70.8906 6.45312 70.7031 7.29688 70.5781C9.73438 70.1719 11.4062 69.2656 12.3125 67.8594C13.25 66.4219 15.625 61.375 19.4375 52.7188L30.7812 27.4062C33.5625 21.3438 35.3438 17.3281 36.125 15.3594C36.9375 13.3594 37.3438 11.8125 37.3438 10.7188C37.3438 10.3438 37.2031 9.67188 36.9219 8.70312C36.6719 7.70312 36.5469 6.98438 36.5469 6.54688C36.5469 5.64062 37.0312 5.1875 38 5.1875C39.5938 5.1875 40.875 5.85938 41.8438 7.20312C42.8125 8.54688 44.1094 11.0781 45.7344 14.7969L58.7188 44.1406C63.4375 54.8281 66.4219 61.4375 67.6719 63.9688C68.9219 66.5 69.9375 68.1406 70.7188 68.8906C71.5312 69.6094 72.4844 70.1406 73.5781 70.4844C74.7031 70.8281 75.4688 71.1719 75.875 71.5156C76.2812 71.8281 76.4844 72.375 76.4844 73.1562C76.4844 74.2188 75.5 74.75 73.5312 74.75C72.875 74.75 71.6719 74.6562 69.9219 74.4688C68.2031 74.2812 66.4844 74.1875 64.7656 74.1875C63.0469 74.1875 61.25 74.2969 59.375 74.5156C57.5312 74.7344 56.2656 74.8438 55.5781 74.8438C54.5156 74.8438 53.6719 74.6562 53.0469 74.2812C52.4219 73.9375 52.1094 73.4531 52.1094 72.8281C52.1094 72.2969 52.2969 71.8594 52.6719 71.5156C53.0469 71.1719 54.0469 70.9219 55.6719 70.7656C57.3281 70.6094 58.3906 70.2656 58.8594 69.7344C59.3594 69.1719 59.6094 68.4844 59.6094 67.6719C59.6094 66.7969 58.7188 64.3906 56.9375 60.4531C55.1562 56.4844 54.0469 54.375 53.6094 54.125C53.1719 53.875 52.3281 53.75 51.0781 53.75H30.125C29.3125 53.75 28.5781 53.5 27.9219 53C27.2656 52.4688 26.9375 51.8594 26.9375 51.1719C26.9375 50.6406 27.1875 50.1719 27.6875 49.7656C28.2188 49.3594 28.8125 49.1562 29.4688 49.1562H49.625C50.75 49.1562 51.3125 48.9531 51.3125 48.5469C51.3125 48.2969 51.0938 47.6875 50.6562 46.7188L40.2969 23.3281Z"
    />
    <path
      d="M102.875 6.40625C107.562 6.40625 112.828 7.76562 118.672 10.4844C124.547 13.1719 129.297 17.2031 132.922 22.5781C136.547 27.9531 138.359 34.2188 138.359 41.375C138.359 51.125 135.359 59.1406 129.359 65.4219C123.359 71.7031 115.578 74.8438 106.016 74.8438L79.4375 74.6562C78.7188 74.6562 78.1094 74.4688 77.6094 74.0938C77.1094 73.75 76.8594 73.2656 76.8594 72.6406C76.8594 72.1094 77.0312 71.6719 77.375 71.3281C77.7188 70.9844 78.6562 70.7344 80.1875 70.5781C81.7188 70.3906 82.6875 70.0625 83.0938 69.5938C83.5312 69.0938 83.75 68.4844 83.75 67.7656V14.4688C83.75 13.0625 83.5156 12.0469 83.0469 11.4219C82.6094 10.7969 82.125 10.4375 81.5938 10.3438C81.0938 10.2188 80.1094 10.1562 78.6406 10.1562C77.7344 10.1562 77.125 10.0156 76.8125 9.73438C76.5 9.42188 76.3438 8.95312 76.3438 8.32812C76.3438 7.04688 77.375 6.40625 79.4375 6.40625H102.875ZM91.7188 65.1875C91.7188 67 92.5469 68.3906 94.2031 69.3594C95.8594 70.3281 98.9062 70.8125 103.344 70.8125C108.156 70.8125 111.797 70.1875 114.266 68.9375C118.453 66.7812 121.844 63.3594 124.438 58.6719C127.062 53.9844 128.375 49.2344 128.375 44.4219C128.375 40.2656 128.016 36.3594 127.297 32.7031C126.609 29.0156 125.344 25.7031 123.5 22.7656C121.688 19.7969 118.938 17 115.25 14.375C111.562 11.75 106.656 10.4375 100.531 10.4375C94.6562 10.4375 91.7188 11.7188 91.7188 14.2812V65.1875Z"
    />
    <path
      d="M219.969 18.7812C219.969 20.3438 220.5 21.9375 221.562 23.5625C222.656 25.1562 225.422 27.5312 229.859 30.6875C238.391 36.7188 244.062 41.5938 246.875 45.3125C249.688 49 251.094 52.9375 251.094 57.125C251.094 63.0625 248.797 67.6875 244.203 71C239.609 74.2812 234.578 75.9219 229.109 75.9219C225.234 75.9219 221.25 75.125 217.156 73.5312C213.094 71.9062 211.062 70.2031 211.062 68.4219C211.062 67.9844 211.109 67.1719 211.203 65.9844C211.297 64.7656 211.344 63.25 211.344 61.4375C211.344 60.8125 211.281 60.0625 211.156 59.1875C211.062 58.2812 211.016 57.6875 211.016 57.4062C211.016 56.25 211.703 55.6719 213.078 55.6719C214.609 55.6719 215.469 56.8281 215.656 59.1406C216.031 62.9531 217.375 65.9219 219.688 68.0469C222 70.1719 225.203 71.2344 229.297 71.2344C233.422 71.2344 236.828 70.0781 239.516 67.7656C242.234 65.4219 243.594 62.375 243.594 58.625C243.594 56.375 242.672 53.9844 240.828 51.4531C239.016 48.9219 234.234 44.9062 226.484 39.4062C223.297 37.1562 220.781 35.25 218.938 33.6875C217.125 32.0938 215.594 30.2188 214.344 28.0625C213.125 25.9062 212.516 23.4531 212.516 20.7031C212.516 16.2344 214.531 12.5312 218.562 9.59375C222.625 6.65625 227.297 5.1875 232.578 5.1875C235.578 5.1875 238.781 5.9375 242.188 7.4375C245.625 8.90625 247.344 10.6406 247.344 12.6406C247.344 12.9219 247.328 13.375 247.297 14C247.266 14.5938 247.25 15.4844 247.25 16.6719C247.25 16.9844 247.312 17.5938 247.438 18.5C247.438 20.5625 246.734 21.5938 245.328 21.5938C244.828 21.5938 244.328 21.3594 243.828 20.8906C243.359 20.3906 243.125 19.8594 243.125 19.2969C243.125 16.2344 242.078 13.8906 239.984 12.2656C237.922 10.6094 235.391 9.78125 232.391 9.78125C228.984 9.78125 226.062 10.7188 223.625 12.5938C221.188 14.4688 219.969 16.5312 219.969 18.7812Z"
    />
    <path
      d="M173.703 23.3281C173.078 21.8906 172.609 21.1719 172.297 21.1719C171.922 21.1719 171.359 22.1719 170.609 24.1719L160.578 47.0938L151.906 66.4062C151.656 67 151.531 67.5156 151.531 67.9531C151.531 68.4219 151.703 68.8438 152.047 69.2188C152.422 69.5938 153.281 69.9688 154.625 70.3438C155.969 70.7188 156.812 71.0938 157.156 71.4688C157.5 71.8438 157.672 72.2656 157.672 72.7344C157.672 74.1719 156.734 74.8906 154.859 74.8906C154.422 74.8906 153.344 74.75 151.625 74.4688C149.938 74.2188 148.531 74.0938 147.406 74.0938C146.25 74.0938 145.062 74.2188 143.844 74.4688C142.625 74.7188 141.734 74.8438 141.172 74.8438C140.391 74.8438 139.75 74.625 139.25 74.1875C138.75 73.7812 138.5 73.2969 138.5 72.7344C138.5 71.9219 138.656 71.3906 138.969 71.1406C139.281 70.8906 139.859 70.7031 140.703 70.5781C143.141 70.1719 144.812 69.2656 145.719 67.8594C146.656 66.4219 149.031 61.375 152.844 52.7188L164.188 27.4062C166.969 21.3438 168.75 17.3281 169.531 15.3594C170.344 13.3594 170.75 11.8125 170.75 10.7188C170.75 10.3438 170.609 9.67188 170.328 8.70312C170.078 7.70312 169.953 6.98438 169.953 6.54688C169.953 5.64062 170.438 5.1875 171.406 5.1875C173 5.1875 174.281 5.85938 175.25 7.20312C176.219 8.54688 177.516 11.0781 179.141 14.7969L192.125 44.1406C196.844 54.8281 199.828 61.4375 201.078 63.9688C202.328 66.5 203.344 68.1406 204.125 68.8906C204.938 69.6094 205.891 70.1406 206.984 70.4844C208.109 70.8281 208.875 71.1719 209.281 71.5156C209.688 71.8281 209.891 72.375 209.891 73.1562C209.891 74.2188 208.906 74.75 206.938 74.75C206.281 74.75 205.078 74.6562 203.328 74.4688C201.609 74.2812 199.891 74.1875 198.172 74.1875C196.453 74.1875 194.656 74.2969 192.781 74.5156C190.938 74.7344 189.672 74.8438 188.984 74.8438C187.922 74.8438 187.078 74.6562 186.453 74.2812C185.828 73.9375 185.516 73.4531 185.516 72.8281C185.516 72.2969 185.703 71.8594 186.078 71.5156C186.453 71.1719 187.453 70.9219 189.078 70.7656C190.734 70.6094 191.797 70.2656 192.266 69.7344C192.766 69.1719 193.016 68.4844 193.016 67.6719C193.016 66.7969 192.125 64.3906 190.344 60.4531C188.562 56.4844 187.453 54.375 187.016 54.125C186.578 53.875 185.734 53.75 184.484 53.75H163.531C162.719 53.75 161.984 53.5 161.328 53C160.672 52.4688 160.344 51.8594 160.344 51.1719C160.344 50.6406 160.594 50.1719 161.094 49.7656C161.625 49.3594 162.219 49.1562 162.875 49.1562H183.031C184.156 49.1562 184.719 48.9531 184.719 48.5469C184.719 48.2969 184.5 47.6875 184.062 46.7188L173.703 23.3281Z"
    />
    <path
      d="M292.812 6.3125C293.875 6.3125 294.734 7.42188 295.391 9.64062C296.047 11.8594 296.375 13.9219 296.375 15.8281C296.375 17.7344 295.766 18.6875 294.547 18.6875C294.109 18.6875 293.703 18.5469 293.328 18.2656C292.984 17.9844 292.484 17 291.828 15.3125C291.203 13.5938 290.25 12.4375 288.969 11.8438C287.719 11.2188 286.344 10.9062 284.844 10.9062C282.719 10.9062 281.172 11.4062 280.203 12.4062C279.266 13.375 278.797 14.9688 278.797 17.1875V66.9688C278.797 67.7188 279.016 68.3906 279.453 68.9844C279.922 69.5469 280.875 70.0469 282.312 70.4844C283.75 70.8906 284.625 71.25 284.938 71.5625C285.25 71.875 285.406 72.2344 285.406 72.6406C285.406 74.2656 284.547 75.0781 282.828 75.0781C281.891 75.0781 280.516 74.9219 278.703 74.6094C276.891 74.3281 275.547 74.1875 274.672 74.1875C273.859 74.1875 272.672 74.3125 271.109 74.5625C269.547 74.8125 268.359 74.9375 267.547 74.9375C266.578 74.9375 265.75 74.7188 265.062 74.2812C264.375 73.8438 264.031 73.2344 264.031 72.4531C264.031 72.0781 264.156 71.75 264.406 71.4688C264.656 71.1562 265.484 70.7969 266.891 70.3906C268.297 69.9531 269.234 69.2969 269.703 68.4219C270.203 67.5469 270.453 66.5625 270.453 65.4688V15.2656C270.453 12.2344 268.406 10.7188 264.312 10.7188C261.656 10.7188 259.766 11.3125 258.641 12.5C257.953 13.1875 257.453 14.25 257.141 15.6875C256.828 17.0938 256.5 17.9375 256.156 18.2188C255.844 18.4688 255.453 18.5938 254.984 18.5938C254.484 18.5938 254 18.4688 253.531 18.2188C253.094 17.9375 252.875 17.5938 252.875 17.1875C252.875 13.7812 253.172 11.125 253.766 9.21875C254.359 7.28125 255.219 6.3125 256.344 6.3125H292.812Z"
    />
    <path
      d="M304.719 14.4688C304.719 12.0938 303.094 10.8125 299.844 10.625C297.594 10.5 296.469 9.76562 296.469 8.42188C296.469 7.01562 297.75 6.3125 300.312 6.3125C301.531 6.3125 302.875 6.42188 304.344 6.64062C305.812 6.85938 307.062 6.96875 308.094 6.96875C308.781 6.96875 310.688 6.75 313.812 6.3125C316.938 5.875 319.344 5.65625 321.031 5.65625C327.469 5.65625 332.688 7.3125 336.688 10.625C340.719 13.9375 342.734 18.2344 342.734 23.5156C342.734 26.8906 341.734 29.6875 339.734 31.9062C337.766 34.0938 334.359 36.125 329.516 38C328.609 38.3438 328.156 38.7031 328.156 39.0781C328.156 39.3281 328.344 39.7344 328.719 40.2969C330.438 42.7344 333.672 48.0156 338.422 56.1406C343.172 64.2344 345.703 68.4688 346.016 68.8438C346.328 69.1875 347.156 69.5938 348.5 70.0625C349.844 70.5 350.688 70.9531 351.031 71.4219C351.406 71.8594 351.594 72.3594 351.594 72.9219C351.594 73.6406 351.125 74.25 350.188 74.75C349.25 75.2812 348.5 75.5469 347.938 75.5469C346.5 75.5469 344.75 75 342.688 73.9062C340.625 72.7812 339.266 71.8281 338.609 71.0469C337.391 69.4844 333.406 63.1094 326.656 51.9219C323.5 46.7031 321.688 43.7656 321.219 43.1094C319.531 40.6719 317.875 39.1094 316.25 38.4219C315.844 38.2656 315.578 38.1094 315.453 37.9531C315.328 37.7656 315.266 37.3906 315.266 36.8281C315.266 35.4844 316.078 34.8125 317.703 34.8125C317.859 34.8125 318.297 34.875 319.016 35C319.734 35.0938 320.438 35.1406 321.125 35.1406C324.562 35.1406 327.438 34.0312 329.75 31.8125C332.062 29.5938 333.219 26.5 333.219 22.5312C333.219 19.7188 331.922 16.9219 329.328 14.1406C326.734 11.3594 323.141 9.96875 318.547 9.96875C316.828 9.96875 315.562 10.1719 314.75 10.5781C313.969 10.9531 313.469 11.4375 313.25 12.0312C313.062 12.5938 312.969 13.3438 312.969 14.2812V66.7812C312.969 67.8125 313.406 68.6562 314.281 69.3125C315.188 69.9375 316.359 70.25 317.797 70.25C319.359 70.25 320.406 70.4531 320.938 70.8594C321.469 71.2656 321.734 71.8594 321.734 72.6406C321.734 73.3906 321.391 74.0156 320.703 74.5156C320.047 75.0156 319.047 75.2656 317.703 75.2656C316.484 75.2656 314.984 74.9062 313.203 74.1875C311.453 73.5 310.062 73.1562 309.031 73.1562C308.156 73.1562 306.844 73.4844 305.094 74.1406C303.344 74.8281 301.969 75.1719 300.969 75.1719C298.094 75.1719 296.656 74.2656 296.656 72.4531C296.656 71.7656 296.891 71.2656 297.359 70.9531C297.828 70.6094 299 70.4375 300.875 70.4375C302 70.4375 302.922 70.1875 303.641 69.6875C304.359 69.1875 304.719 68.5781 304.719 67.8594V14.4688Z"
    />
    <path
      d="M385.672 23.3281C385.047 21.8906 384.578 21.1719 384.266 21.1719C383.891 21.1719 383.328 22.1719 382.578 24.1719L372.547 47.0938L363.875 66.4062C363.625 67 363.5 67.5156 363.5 67.9531C363.5 68.4219 363.672 68.8438 364.016 69.2188C364.391 69.5938 365.25 69.9688 366.594 70.3438C367.938 70.7188 368.781 71.0938 369.125 71.4688C369.469 71.8438 369.641 72.2656 369.641 72.7344C369.641 74.1719 368.703 74.8906 366.828 74.8906C366.391 74.8906 365.312 74.75 363.594 74.4688C361.906 74.2188 360.5 74.0938 359.375 74.0938C358.219 74.0938 357.031 74.2188 355.812 74.4688C354.594 74.7188 353.703 74.8438 353.141 74.8438C352.359 74.8438 351.719 74.625 351.219 74.1875C350.719 73.7812 350.469 73.2969 350.469 72.7344C350.469 71.9219 350.625 71.3906 350.938 71.1406C351.25 70.8906 351.828 70.7031 352.672 70.5781C355.109 70.1719 356.781 69.2656 357.688 67.8594C358.625 66.4219 361 61.375 364.812 52.7188L376.156 27.4062C378.938 21.3438 380.719 17.3281 381.5 15.3594C382.312 13.3594 382.719 11.8125 382.719 10.7188C382.719 10.3438 382.578 9.67188 382.297 8.70312C382.047 7.70312 381.922 6.98438 381.922 6.54688C381.922 5.64062 382.406 5.1875 383.375 5.1875C384.969 5.1875 386.25 5.85938 387.219 7.20312C388.188 8.54688 389.484 11.0781 391.109 14.7969L404.094 44.1406C408.812 54.8281 411.797 61.4375 413.047 63.9688C414.297 66.5 415.312 68.1406 416.094 68.8906C416.906 69.6094 417.859 70.1406 418.953 70.4844C420.078 70.8281 420.844 71.1719 421.25 71.5156C421.656 71.8281 421.859 72.375 421.859 73.1562C421.859 74.2188 420.875 74.75 418.906 74.75C418.25 74.75 417.047 74.6562 415.297 74.4688C413.578 74.2812 411.859 74.1875 410.141 74.1875C408.422 74.1875 406.625 74.2969 404.75 74.5156C402.906 74.7344 401.641 74.8438 400.953 74.8438C399.891 74.8438 399.047 74.6562 398.422 74.2812C397.797 73.9375 397.484 73.4531 397.484 72.8281C397.484 72.2969 397.672 71.8594 398.047 71.5156C398.422 71.1719 399.422 70.9219 401.047 70.7656C402.703 70.6094 403.766 70.2656 404.234 69.7344C404.734 69.1719 404.984 68.4844 404.984 67.6719C404.984 66.7969 404.094 64.3906 402.312 60.4531C400.531 56.4844 399.422 54.375 398.984 54.125C398.547 53.875 397.703 53.75 396.453 53.75H375.5C374.688 53.75 373.953 53.5 373.297 53C372.641 52.4688 372.312 51.8594 372.312 51.1719C372.312 50.6406 372.562 50.1719 373.062 49.7656C373.594 49.3594 374.188 49.1562 374.844 49.1562H395C396.125 49.1562 396.688 48.9531 396.688 48.5469C396.688 48.2969 396.469 47.6875 396.031 46.7188L385.672 23.3281Z"
    />
  </mask>
  <path
    d="M40.2969 23.3281C39.6719 21.8906 39.2031 21.1719 38.8906 21.1719C38.5156 21.1719 37.9531 22.1719 37.2031 24.1719L27.1719 47.0938L18.5 66.4062C18.25 67 18.125 67.5156 18.125 67.9531C18.125 68.4219 18.2969 68.8438 18.6406 69.2188C19.0156 69.5938 19.875 69.9688 21.2188 70.3438C22.5625 70.7188 23.4062 71.0938 23.75 71.4688C24.0938 71.8438 24.2656 72.2656 24.2656 72.7344C24.2656 74.1719 23.3281 74.8906 21.4531 74.8906C21.0156 74.8906 19.9375 74.75 18.2188 74.4688C16.5312 74.2188 15.125 74.0938 14 74.0938C12.8438 74.0938 11.6562 74.2188 10.4375 74.4688C9.21875 74.7188 8.32812 74.8438 7.76562 74.8438C6.98438 74.8438 6.34375 74.625 5.84375 74.1875C5.34375 73.7812 5.09375 73.2969 5.09375 72.7344C5.09375 71.9219 5.25 71.3906 5.5625 71.1406C5.875 70.8906 6.45312 70.7031 7.29688 70.5781C9.73438 70.1719 11.4062 69.2656 12.3125 67.8594C13.25 66.4219 15.625 61.375 19.4375 52.7188L30.7812 27.4062C33.5625 21.3438 35.3438 17.3281 36.125 15.3594C36.9375 13.3594 37.3438 11.8125 37.3438 10.7188C37.3438 10.3438 37.2031 9.67188 36.9219 8.70312C36.6719 7.70312 36.5469 6.98438 36.5469 6.54688C36.5469 5.64062 37.0312 5.1875 38 5.1875C39.5938 5.1875 40.875 5.85938 41.8438 7.20312C42.8125 8.54688 44.1094 11.0781 45.7344 14.7969L58.7188 44.1406C63.4375 54.8281 66.4219 61.4375 67.6719 63.9688C68.9219 66.5 69.9375 68.1406 70.7188 68.8906C71.5312 69.6094 72.4844 70.1406 73.5781 70.4844C74.7031 70.8281 75.4688 71.1719 75.875 71.5156C76.2812 71.8281 76.4844 72.375 76.4844 73.1562C76.4844 74.2188 75.5 74.75 73.5312 74.75C72.875 74.75 71.6719 74.6562 69.9219 74.4688C68.2031 74.2812 66.4844 74.1875 64.7656 74.1875C63.0469 74.1875 61.25 74.2969 59.375 74.5156C57.5312 74.7344 56.2656 74.8438 55.5781 74.8438C54.5156 74.8438 53.6719 74.6562 53.0469 74.2812C52.4219 73.9375 52.1094 73.4531 52.1094 72.8281C52.1094 72.2969 52.2969 71.8594 52.6719 71.5156C53.0469 71.1719 54.0469 70.9219 55.6719 70.7656C57.3281 70.6094 58.3906 70.2656 58.8594 69.7344C59.3594 69.1719 59.6094 68.4844 59.6094 67.6719C59.6094 66.7969 58.7188 64.3906 56.9375 60.4531C55.1562 56.4844 54.0469 54.375 53.6094 54.125C53.1719 53.875 52.3281 53.75 51.0781 53.75H30.125C29.3125 53.75 28.5781 53.5 27.9219 53C27.2656 52.4688 26.9375 51.8594 26.9375 51.1719C26.9375 50.6406 27.1875 50.1719 27.6875 49.7656C28.2188 49.3594 28.8125 49.1562 29.4688 49.1562H49.625C50.75 49.1562 51.3125 48.9531 51.3125 48.5469C51.3125 48.2969 51.0938 47.6875 50.6562 46.7188L40.2969 23.3281Z"
    stroke="white"
    stroke-width="10"
    mask="url(#path-1-outside-1_4_22)"
  />
  <path
    d="M102.875 6.40625C107.562 6.40625 112.828 7.76562 118.672 10.4844C124.547 13.1719 129.297 17.2031 132.922 22.5781C136.547 27.9531 138.359 34.2188 138.359 41.375C138.359 51.125 135.359 59.1406 129.359 65.4219C123.359 71.7031 115.578 74.8438 106.016 74.8438L79.4375 74.6562C78.7188 74.6562 78.1094 74.4688 77.6094 74.0938C77.1094 73.75 76.8594 73.2656 76.8594 72.6406C76.8594 72.1094 77.0312 71.6719 77.375 71.3281C77.7188 70.9844 78.6562 70.7344 80.1875 70.5781C81.7188 70.3906 82.6875 70.0625 83.0938 69.5938C83.5312 69.0938 83.75 68.4844 83.75 67.7656V14.4688C83.75 13.0625 83.5156 12.0469 83.0469 11.4219C82.6094 10.7969 82.125 10.4375 81.5938 10.3438C81.0938 10.2188 80.1094 10.1562 78.6406 10.1562C77.7344 10.1562 77.125 10.0156 76.8125 9.73438C76.5 9.42188 76.3438 8.95312 76.3438 8.32812C76.3438 7.04688 77.375 6.40625 79.4375 6.40625H102.875ZM91.7188 65.1875C91.7188 67 92.5469 68.3906 94.2031 69.3594C95.8594 70.3281 98.9062 70.8125 103.344 70.8125C108.156 70.8125 111.797 70.1875 114.266 68.9375C118.453 66.7812 121.844 63.3594 124.438 58.6719C127.062 53.9844 128.375 49.2344 128.375 44.4219C128.375 40.2656 128.016 36.3594 127.297 32.7031C126.609 29.0156 125.344 25.7031 123.5 22.7656C121.688 19.7969 118.938 17 115.25 14.375C111.562 11.75 106.656 10.4375 100.531 10.4375C94.6562 10.4375 91.7188 11.7188 91.7188 14.2812V65.1875Z"
    stroke="white"
    stroke-width="10"
    mask="url(#path-1-outside-1_4_22)"
  />
  <path
    d="M219.969 18.7812C219.969 20.3438 220.5 21.9375 221.562 23.5625C222.656 25.1562 225.422 27.5312 229.859 30.6875C238.391 36.7188 244.062 41.5938 246.875 45.3125C249.688 49 251.094 52.9375 251.094 57.125C251.094 63.0625 248.797 67.6875 244.203 71C239.609 74.2812 234.578 75.9219 229.109 75.9219C225.234 75.9219 221.25 75.125 217.156 73.5312C213.094 71.9062 211.062 70.2031 211.062 68.4219C211.062 67.9844 211.109 67.1719 211.203 65.9844C211.297 64.7656 211.344 63.25 211.344 61.4375C211.344 60.8125 211.281 60.0625 211.156 59.1875C211.062 58.2812 211.016 57.6875 211.016 57.4062C211.016 56.25 211.703 55.6719 213.078 55.6719C214.609 55.6719 215.469 56.8281 215.656 59.1406C216.031 62.9531 217.375 65.9219 219.688 68.0469C222 70.1719 225.203 71.2344 229.297 71.2344C233.422 71.2344 236.828 70.0781 239.516 67.7656C242.234 65.4219 243.594 62.375 243.594 58.625C243.594 56.375 242.672 53.9844 240.828 51.4531C239.016 48.9219 234.234 44.9062 226.484 39.4062C223.297 37.1562 220.781 35.25 218.938 33.6875C217.125 32.0938 215.594 30.2188 214.344 28.0625C213.125 25.9062 212.516 23.4531 212.516 20.7031C212.516 16.2344 214.531 12.5312 218.562 9.59375C222.625 6.65625 227.297 5.1875 232.578 5.1875C235.578 5.1875 238.781 5.9375 242.188 7.4375C245.625 8.90625 247.344 10.6406 247.344 12.6406C247.344 12.9219 247.328 13.375 247.297 14C247.266 14.5938 247.25 15.4844 247.25 16.6719C247.25 16.9844 247.312 17.5938 247.438 18.5C247.438 20.5625 246.734 21.5938 245.328 21.5938C244.828 21.5938 244.328 21.3594 243.828 20.8906C243.359 20.3906 243.125 19.8594 243.125 19.2969C243.125 16.2344 242.078 13.8906 239.984 12.2656C237.922 10.6094 235.391 9.78125 232.391 9.78125C228.984 9.78125 226.062 10.7188 223.625 12.5938C221.188 14.4688 219.969 16.5312 219.969 18.7812Z"
    stroke="white"
    stroke-width="10"
    mask="url(#path-1-outside-1_4_22)"
  />
  <path
    d="M173.703 23.3281C173.078 21.8906 172.609 21.1719 172.297 21.1719C171.922 21.1719 171.359 22.1719 170.609 24.1719L160.578 47.0938L151.906 66.4062C151.656 67 151.531 67.5156 151.531 67.9531C151.531 68.4219 151.703 68.8438 152.047 69.2188C152.422 69.5938 153.281 69.9688 154.625 70.3438C155.969 70.7188 156.812 71.0938 157.156 71.4688C157.5 71.8438 157.672 72.2656 157.672 72.7344C157.672 74.1719 156.734 74.8906 154.859 74.8906C154.422 74.8906 153.344 74.75 151.625 74.4688C149.938 74.2188 148.531 74.0938 147.406 74.0938C146.25 74.0938 145.062 74.2188 143.844 74.4688C142.625 74.7188 141.734 74.8438 141.172 74.8438C140.391 74.8438 139.75 74.625 139.25 74.1875C138.75 73.7812 138.5 73.2969 138.5 72.7344C138.5 71.9219 138.656 71.3906 138.969 71.1406C139.281 70.8906 139.859 70.7031 140.703 70.5781C143.141 70.1719 144.812 69.2656 145.719 67.8594C146.656 66.4219 149.031 61.375 152.844 52.7188L164.188 27.4062C166.969 21.3438 168.75 17.3281 169.531 15.3594C170.344 13.3594 170.75 11.8125 170.75 10.7188C170.75 10.3438 170.609 9.67188 170.328 8.70312C170.078 7.70312 169.953 6.98438 169.953 6.54688C169.953 5.64062 170.438 5.1875 171.406 5.1875C173 5.1875 174.281 5.85938 175.25 7.20312C176.219 8.54688 177.516 11.0781 179.141 14.7969L192.125 44.1406C196.844 54.8281 199.828 61.4375 201.078 63.9688C202.328 66.5 203.344 68.1406 204.125 68.8906C204.938 69.6094 205.891 70.1406 206.984 70.4844C208.109 70.8281 208.875 71.1719 209.281 71.5156C209.688 71.8281 209.891 72.375 209.891 73.1562C209.891 74.2188 208.906 74.75 206.938 74.75C206.281 74.75 205.078 74.6562 203.328 74.4688C201.609 74.2812 199.891 74.1875 198.172 74.1875C196.453 74.1875 194.656 74.2969 192.781 74.5156C190.938 74.7344 189.672 74.8438 188.984 74.8438C187.922 74.8438 187.078 74.6562 186.453 74.2812C185.828 73.9375 185.516 73.4531 185.516 72.8281C185.516 72.2969 185.703 71.8594 186.078 71.5156C186.453 71.1719 187.453 70.9219 189.078 70.7656C190.734 70.6094 191.797 70.2656 192.266 69.7344C192.766 69.1719 193.016 68.4844 193.016 67.6719C193.016 66.7969 192.125 64.3906 190.344 60.4531C188.562 56.4844 187.453 54.375 187.016 54.125C186.578 53.875 185.734 53.75 184.484 53.75H163.531C162.719 53.75 161.984 53.5 161.328 53C160.672 52.4688 160.344 51.8594 160.344 51.1719C160.344 50.6406 160.594 50.1719 161.094 49.7656C161.625 49.3594 162.219 49.1562 162.875 49.1562H183.031C184.156 49.1562 184.719 48.9531 184.719 48.5469C184.719 48.2969 184.5 47.6875 184.062 46.7188L173.703 23.3281Z"
    stroke="white"
    stroke-width="10"
    mask="url(#path-1-outside-1_4_22)"
  />
  <path
    d="M292.812 6.3125C293.875 6.3125 294.734 7.42188 295.391 9.64062C296.047 11.8594 296.375 13.9219 296.375 15.8281C296.375 17.7344 295.766 18.6875 294.547 18.6875C294.109 18.6875 293.703 18.5469 293.328 18.2656C292.984 17.9844 292.484 17 291.828 15.3125C291.203 13.5938 290.25 12.4375 288.969 11.8438C287.719 11.2188 286.344 10.9062 284.844 10.9062C282.719 10.9062 281.172 11.4062 280.203 12.4062C279.266 13.375 278.797 14.9688 278.797 17.1875V66.9688C278.797 67.7188 279.016 68.3906 279.453 68.9844C279.922 69.5469 280.875 70.0469 282.312 70.4844C283.75 70.8906 284.625 71.25 284.938 71.5625C285.25 71.875 285.406 72.2344 285.406 72.6406C285.406 74.2656 284.547 75.0781 282.828 75.0781C281.891 75.0781 280.516 74.9219 278.703 74.6094C276.891 74.3281 275.547 74.1875 274.672 74.1875C273.859 74.1875 272.672 74.3125 271.109 74.5625C269.547 74.8125 268.359 74.9375 267.547 74.9375C266.578 74.9375 265.75 74.7188 265.062 74.2812C264.375 73.8438 264.031 73.2344 264.031 72.4531C264.031 72.0781 264.156 71.75 264.406 71.4688C264.656 71.1562 265.484 70.7969 266.891 70.3906C268.297 69.9531 269.234 69.2969 269.703 68.4219C270.203 67.5469 270.453 66.5625 270.453 65.4688V15.2656C270.453 12.2344 268.406 10.7188 264.312 10.7188C261.656 10.7188 259.766 11.3125 258.641 12.5C257.953 13.1875 257.453 14.25 257.141 15.6875C256.828 17.0938 256.5 17.9375 256.156 18.2188C255.844 18.4688 255.453 18.5938 254.984 18.5938C254.484 18.5938 254 18.4688 253.531 18.2188C253.094 17.9375 252.875 17.5938 252.875 17.1875C252.875 13.7812 253.172 11.125 253.766 9.21875C254.359 7.28125 255.219 6.3125 256.344 6.3125H292.812Z"
    stroke="white"
    stroke-width="10"
    mask="url(#path-1-outside-1_4_22)"
  />
  <path
    d="M304.719 14.4688C304.719 12.0938 303.094 10.8125 299.844 10.625C297.594 10.5 296.469 9.76562 296.469 8.42188C296.469 7.01562 297.75 6.3125 300.312 6.3125C301.531 6.3125 302.875 6.42188 304.344 6.64062C305.812 6.85938 307.062 6.96875 308.094 6.96875C308.781 6.96875 310.688 6.75 313.812 6.3125C316.938 5.875 319.344 5.65625 321.031 5.65625C327.469 5.65625 332.688 7.3125 336.688 10.625C340.719 13.9375 342.734 18.2344 342.734 23.5156C342.734 26.8906 341.734 29.6875 339.734 31.9062C337.766 34.0938 334.359 36.125 329.516 38C328.609 38.3438 328.156 38.7031 328.156 39.0781C328.156 39.3281 328.344 39.7344 328.719 40.2969C330.438 42.7344 333.672 48.0156 338.422 56.1406C343.172 64.2344 345.703 68.4688 346.016 68.8438C346.328 69.1875 347.156 69.5938 348.5 70.0625C349.844 70.5 350.688 70.9531 351.031 71.4219C351.406 71.8594 351.594 72.3594 351.594 72.9219C351.594 73.6406 351.125 74.25 350.188 74.75C349.25 75.2812 348.5 75.5469 347.938 75.5469C346.5 75.5469 344.75 75 342.688 73.9062C340.625 72.7812 339.266 71.8281 338.609 71.0469C337.391 69.4844 333.406 63.1094 326.656 51.9219C323.5 46.7031 321.688 43.7656 321.219 43.1094C319.531 40.6719 317.875 39.1094 316.25 38.4219C315.844 38.2656 315.578 38.1094 315.453 37.9531C315.328 37.7656 315.266 37.3906 315.266 36.8281C315.266 35.4844 316.078 34.8125 317.703 34.8125C317.859 34.8125 318.297 34.875 319.016 35C319.734 35.0938 320.438 35.1406 321.125 35.1406C324.562 35.1406 327.438 34.0312 329.75 31.8125C332.062 29.5938 333.219 26.5 333.219 22.5312C333.219 19.7188 331.922 16.9219 329.328 14.1406C326.734 11.3594 323.141 9.96875 318.547 9.96875C316.828 9.96875 315.562 10.1719 314.75 10.5781C313.969 10.9531 313.469 11.4375 313.25 12.0312C313.062 12.5938 312.969 13.3438 312.969 14.2812V66.7812C312.969 67.8125 313.406 68.6562 314.281 69.3125C315.188 69.9375 316.359 70.25 317.797 70.25C319.359 70.25 320.406 70.4531 320.938 70.8594C321.469 71.2656 321.734 71.8594 321.734 72.6406C321.734 73.3906 321.391 74.0156 320.703 74.5156C320.047 75.0156 319.047 75.2656 317.703 75.2656C316.484 75.2656 314.984 74.9062 313.203 74.1875C311.453 73.5 310.062 73.1562 309.031 73.1562C308.156 73.1562 306.844 73.4844 305.094 74.1406C303.344 74.8281 301.969 75.1719 300.969 75.1719C298.094 75.1719 296.656 74.2656 296.656 72.4531C296.656 71.7656 296.891 71.2656 297.359 70.9531C297.828 70.6094 299 70.4375 300.875 70.4375C302 70.4375 302.922 70.1875 303.641 69.6875C304.359 69.1875 304.719 68.5781 304.719 67.8594V14.4688Z"
    stroke="white"
    stroke-width="10"
    mask="url(#path-1-outside-1_4_22)"
  />
  <path
    d="M385.672 23.3281C385.047 21.8906 384.578 21.1719 384.266 21.1719C383.891 21.1719 383.328 22.1719 382.578 24.1719L372.547 47.0938L363.875 66.4062C363.625 67 363.5 67.5156 363.5 67.9531C363.5 68.4219 363.672 68.8438 364.016 69.2188C364.391 69.5938 365.25 69.9688 366.594 70.3438C367.938 70.7188 368.781 71.0938 369.125 71.4688C369.469 71.8438 369.641 72.2656 369.641 72.7344C369.641 74.1719 368.703 74.8906 366.828 74.8906C366.391 74.8906 365.312 74.75 363.594 74.4688C361.906 74.2188 360.5 74.0938 359.375 74.0938C358.219 74.0938 357.031 74.2188 355.812 74.4688C354.594 74.7188 353.703 74.8438 353.141 74.8438C352.359 74.8438 351.719 74.625 351.219 74.1875C350.719 73.7812 350.469 73.2969 350.469 72.7344C350.469 71.9219 350.625 71.3906 350.938 71.1406C351.25 70.8906 351.828 70.7031 352.672 70.5781C355.109 70.1719 356.781 69.2656 357.688 67.8594C358.625 66.4219 361 61.375 364.812 52.7188L376.156 27.4062C378.938 21.3438 380.719 17.3281 381.5 15.3594C382.312 13.3594 382.719 11.8125 382.719 10.7188C382.719 10.3438 382.578 9.67188 382.297 8.70312C382.047 7.70312 381.922 6.98438 381.922 6.54688C381.922 5.64062 382.406 5.1875 383.375 5.1875C384.969 5.1875 386.25 5.85938 387.219 7.20312C388.188 8.54688 389.484 11.0781 391.109 14.7969L404.094 44.1406C408.812 54.8281 411.797 61.4375 413.047 63.9688C414.297 66.5 415.312 68.1406 416.094 68.8906C416.906 69.6094 417.859 70.1406 418.953 70.4844C420.078 70.8281 420.844 71.1719 421.25 71.5156C421.656 71.8281 421.859 72.375 421.859 73.1562C421.859 74.2188 420.875 74.75 418.906 74.75C418.25 74.75 417.047 74.6562 415.297 74.4688C413.578 74.2812 411.859 74.1875 410.141 74.1875C408.422 74.1875 406.625 74.2969 404.75 74.5156C402.906 74.7344 401.641 74.8438 400.953 74.8438C399.891 74.8438 399.047 74.6562 398.422 74.2812C397.797 73.9375 397.484 73.4531 397.484 72.8281C397.484 72.2969 397.672 71.8594 398.047 71.5156C398.422 71.1719 399.422 70.9219 401.047 70.7656C402.703 70.6094 403.766 70.2656 404.234 69.7344C404.734 69.1719 404.984 68.4844 404.984 67.6719C404.984 66.7969 404.094 64.3906 402.312 60.4531C400.531 56.4844 399.422 54.375 398.984 54.125C398.547 53.875 397.703 53.75 396.453 53.75H375.5C374.688 53.75 373.953 53.5 373.297 53C372.641 52.4688 372.312 51.8594 372.312 51.1719C372.312 50.6406 372.562 50.1719 373.062 49.7656C373.594 49.3594 374.188 49.1562 374.844 49.1562H395C396.125 49.1562 396.688 48.9531 396.688 48.5469C396.688 48.2969 396.469 47.6875 396.031 46.7188L385.672 23.3281Z"
    stroke="white"
    stroke-width="10"
    mask="url(#path-1-outside-1_4_22)"
  />
</svg>